<mxfile host="app.diagrams.net" modified="2021-03-04T19:59:52.945Z" agent="5.0 (Windows NT 10.0; Win64; x64) AppleWebKit/537.36 (KHTML, like Gecko) Chrome/89.0.4389.72 Safari/537.36" etag="DNC9GZ6-R93I_yrNit0Q" version="14.3.0" type="github">
  <diagram id="ACFHJaDp0CCpu47aHDbk" name="Page-1">
    <mxGraphModel dx="1422" dy="794" grid="1" gridSize="10" guides="1" tooltips="1" connect="1" arrows="1" fold="1" page="1" pageScale="1" pageWidth="850" pageHeight="1100" math="0" shadow="0">
      <root>
        <mxCell id="0" />
        <mxCell id="1" parent="0" />
        <mxCell id="2gQc0NYOQKcEP8dJCD8I-3" value="" style="whiteSpace=wrap;html=1;aspect=fixed;fillColor=#d5e8d4;strokeColor=#82b366;" vertex="1" parent="1">
          <mxGeometry x="530" y="148.5" width="382.5" height="382.5" as="geometry" />
        </mxCell>
        <mxCell id="2gQc0NYOQKcEP8dJCD8I-4" value="" style="edgeStyle=orthogonalEdgeStyle;rounded=0;orthogonalLoop=1;jettySize=auto;html=1;strokeWidth=2;exitX=0.875;exitY=0.5;exitDx=0;exitDy=0;exitPerimeter=0;startArrow=classic;startFill=1;" edge="1" parent="1" source="2gQc0NYOQKcEP8dJCD8I-5" target="2gQc0NYOQKcEP8dJCD8I-9">
          <mxGeometry relative="1" as="geometry" />
        </mxCell>
        <mxCell id="2gQc0NYOQKcEP8dJCD8I-5" value="Customer" style="ellipse;shape=cloud;whiteSpace=wrap;html=1;fillColor=#f8cecc;strokeColor=#b85450;" vertex="1" parent="1">
          <mxGeometry x="10" y="270" width="170" height="110" as="geometry" />
        </mxCell>
        <mxCell id="2gQc0NYOQKcEP8dJCD8I-6" value="" style="endArrow=none;html=1;strokeWidth=3;fillColor=#f8cecc;strokeColor=#b85450;" edge="1" parent="1">
          <mxGeometry width="50" height="50" relative="1" as="geometry">
            <mxPoint x="200" y="560" as="sourcePoint" />
            <mxPoint x="200" y="120" as="targetPoint" />
          </mxGeometry>
        </mxCell>
        <mxCell id="2gQc0NYOQKcEP8dJCD8I-7" value="" style="endArrow=none;html=1;strokeWidth=3;fillColor=#fff2cc;strokeColor=#d6b656;" edge="1" parent="1">
          <mxGeometry width="50" height="50" relative="1" as="geometry">
            <mxPoint x="440" y="560" as="sourcePoint" />
            <mxPoint x="440" y="120" as="targetPoint" />
          </mxGeometry>
        </mxCell>
        <mxCell id="2gQc0NYOQKcEP8dJCD8I-8" style="edgeStyle=orthogonalEdgeStyle;rounded=0;orthogonalLoop=1;jettySize=auto;html=1;entryX=-0.008;entryY=0.461;entryDx=0;entryDy=0;strokeWidth=2;startArrow=classic;startFill=1;entryPerimeter=0;" edge="1" parent="1" source="2gQc0NYOQKcEP8dJCD8I-9" target="2gQc0NYOQKcEP8dJCD8I-3">
          <mxGeometry relative="1" as="geometry" />
        </mxCell>
        <mxCell id="2gQc0NYOQKcEP8dJCD8I-29" value="" style="edgeStyle=orthogonalEdgeStyle;rounded=0;orthogonalLoop=1;jettySize=auto;html=1;" edge="1" parent="1" source="2gQc0NYOQKcEP8dJCD8I-9" target="2gQc0NYOQKcEP8dJCD8I-28">
          <mxGeometry relative="1" as="geometry" />
        </mxCell>
        <mxCell id="2gQc0NYOQKcEP8dJCD8I-9" value="PKS Cluster for SAML Service Provider" style="shape=process;whiteSpace=wrap;html=1;backgroundOutline=1;fillColor=#fff2cc;strokeColor=#d6b656;" vertex="1" parent="1">
          <mxGeometry x="261" y="295" width="120" height="60" as="geometry" />
        </mxCell>
        <mxCell id="2gQc0NYOQKcEP8dJCD8I-10" value="PCF" style="text;html=1;strokeColor=none;fillColor=none;align=center;verticalAlign=middle;whiteSpace=wrap;rounded=0;" vertex="1" parent="1">
          <mxGeometry x="650" y="175" width="40" height="20" as="geometry" />
        </mxCell>
        <mxCell id="2gQc0NYOQKcEP8dJCD8I-11" value="" style="shape=process;whiteSpace=wrap;html=1;backgroundOutline=1;fillColor=#dae8fc;strokeColor=#6c8ebf;" vertex="1" parent="1">
          <mxGeometry x="590" y="195" width="190" height="140" as="geometry" />
        </mxCell>
        <mxCell id="2gQc0NYOQKcEP8dJCD8I-34" value="" style="edgeStyle=orthogonalEdgeStyle;rounded=0;orthogonalLoop=1;jettySize=auto;html=1;" edge="1" parent="1" source="2gQc0NYOQKcEP8dJCD8I-13" target="2gQc0NYOQKcEP8dJCD8I-32">
          <mxGeometry relative="1" as="geometry" />
        </mxCell>
        <mxCell id="2gQc0NYOQKcEP8dJCD8I-13" value="API 1" style="rounded=1;whiteSpace=wrap;html=1;" vertex="1" parent="1">
          <mxGeometry x="620" y="250" width="50" height="50" as="geometry" />
        </mxCell>
        <mxCell id="2gQc0NYOQKcEP8dJCD8I-35" value="" style="edgeStyle=orthogonalEdgeStyle;rounded=0;orthogonalLoop=1;jettySize=auto;html=1;" edge="1" parent="1" source="2gQc0NYOQKcEP8dJCD8I-14" target="2gQc0NYOQKcEP8dJCD8I-33">
          <mxGeometry relative="1" as="geometry" />
        </mxCell>
        <mxCell id="2gQc0NYOQKcEP8dJCD8I-14" value="API 2" style="rounded=1;whiteSpace=wrap;html=1;" vertex="1" parent="1">
          <mxGeometry x="690" y="250" width="50" height="50" as="geometry" />
        </mxCell>
        <mxCell id="2gQc0NYOQKcEP8dJCD8I-15" value="" style="aspect=fixed;perimeter=ellipsePerimeter;html=1;align=center;shadow=0;dashed=0;spacingTop=3;image;image=img/lib/active_directory/secure.svg;" vertex="1" parent="1">
          <mxGeometry x="220" y="280" width="20" height="31.25" as="geometry" />
        </mxCell>
        <mxCell id="2gQc0NYOQKcEP8dJCD8I-16" value="" style="aspect=fixed;perimeter=ellipsePerimeter;html=1;align=center;shadow=0;dashed=0;spacingTop=3;image;image=img/lib/active_directory/secure.svg;" vertex="1" parent="1">
          <mxGeometry x="470" y="280" width="20" height="31.25" as="geometry" />
        </mxCell>
        <mxCell id="2gQc0NYOQKcEP8dJCD8I-17" value="The internet" style="shape=callout;whiteSpace=wrap;html=1;perimeter=calloutPerimeter;fillColor=#f8cecc;strokeColor=#b85450;" vertex="1" parent="1">
          <mxGeometry x="50" y="40" width="120" height="60" as="geometry" />
        </mxCell>
        <mxCell id="2gQc0NYOQKcEP8dJCD8I-18" value="Dell DMZ" style="shape=callout;whiteSpace=wrap;html=1;perimeter=calloutPerimeter;fillColor=#fff2cc;strokeColor=#d6b656;" vertex="1" parent="1">
          <mxGeometry x="261" y="40" width="120" height="60" as="geometry" />
        </mxCell>
        <mxCell id="2gQc0NYOQKcEP8dJCD8I-19" value="Dell CORP/Core&amp;nbsp;" style="shape=callout;whiteSpace=wrap;html=1;perimeter=calloutPerimeter;fillColor=#d5e8d4;strokeColor=#82b366;" vertex="1" parent="1">
          <mxGeometry x="570" y="40" width="120" height="60" as="geometry" />
        </mxCell>
        <mxCell id="2gQc0NYOQKcEP8dJCD8I-20" value="2" style="ellipse;whiteSpace=wrap;html=1;fillColor=#d5e8d4;strokeColor=#82b366;" vertex="1" parent="1">
          <mxGeometry x="465" y="240" width="30" height="30" as="geometry" />
        </mxCell>
        <mxCell id="2gQc0NYOQKcEP8dJCD8I-21" value="1" style="ellipse;whiteSpace=wrap;html=1;fillColor=#fff2cc;strokeColor=#d6b656;" vertex="1" parent="1">
          <mxGeometry x="215" y="240" width="30" height="30" as="geometry" />
        </mxCell>
        <mxCell id="2gQc0NYOQKcEP8dJCD8I-28" value="PING IDP" style="shape=process;whiteSpace=wrap;html=1;backgroundOutline=1;fillColor=#f8cecc;strokeColor=#b85450;" vertex="1" parent="1">
          <mxGeometry x="261" y="420" width="120" height="60" as="geometry" />
        </mxCell>
        <mxCell id="2gQc0NYOQKcEP8dJCD8I-31" value="" style="shape=process;whiteSpace=wrap;html=1;backgroundOutline=1;fillColor=#dae8fc;strokeColor=#6c8ebf;" vertex="1" parent="1">
          <mxGeometry x="590" y="380" width="190" height="110" as="geometry" />
        </mxCell>
        <mxCell id="2gQc0NYOQKcEP8dJCD8I-32" value="API 3" style="rounded=1;whiteSpace=wrap;html=1;" vertex="1" parent="1">
          <mxGeometry x="620" y="410" width="50" height="50" as="geometry" />
        </mxCell>
        <mxCell id="2gQc0NYOQKcEP8dJCD8I-33" value="API 4" style="rounded=1;whiteSpace=wrap;html=1;" vertex="1" parent="1">
          <mxGeometry x="690" y="410" width="50" height="50" as="geometry" />
        </mxCell>
        <mxCell id="2gQc0NYOQKcEP8dJCD8I-36" value="PCF Isolation Segment" style="text;html=1;strokeColor=none;fillColor=none;align=center;verticalAlign=middle;whiteSpace=wrap;rounded=0;" vertex="1" parent="1">
          <mxGeometry x="620" y="195" width="130" height="20" as="geometry" />
        </mxCell>
        <mxCell id="2gQc0NYOQKcEP8dJCD8I-39" style="edgeStyle=orthogonalEdgeStyle;rounded=0;orthogonalLoop=1;jettySize=auto;html=1;entryX=1;entryY=0.75;entryDx=0;entryDy=0;exitX=1;exitY=0.5;exitDx=0;exitDy=0;" edge="1" parent="1" source="2gQc0NYOQKcEP8dJCD8I-38" target="2gQc0NYOQKcEP8dJCD8I-28">
          <mxGeometry relative="1" as="geometry" />
        </mxCell>
        <mxCell id="2gQc0NYOQKcEP8dJCD8I-38" value="NGNIX Servers" style="shape=process;whiteSpace=wrap;html=1;backgroundOutline=1;fillColor=#f5f5f5;strokeColor=#666666;fontColor=#333333;" vertex="1" parent="1">
          <mxGeometry x="261" y="190" width="120" height="60" as="geometry" />
        </mxCell>
        <mxCell id="2gQc0NYOQKcEP8dJCD8I-40" value="PCF Non-ISO" style="text;html=1;strokeColor=none;fillColor=none;align=center;verticalAlign=middle;whiteSpace=wrap;rounded=0;" vertex="1" parent="1">
          <mxGeometry x="620" y="380" width="130" height="20" as="geometry" />
        </mxCell>
      </root>
    </mxGraphModel>
  </diagram>
</mxfile>
